<?xml version="1.0" encoding="UTF-8"?>
<svg id="_圖層_1" data-name="圖層_1" xmlns="http://www.w3.org/2000/svg" version="1.1" viewBox="0 0 142 58.33">
  <!-- Generator: Adobe Illustrator 29.5.1, SVG Export Plug-In . SVG Version: 2.1.0 Build 141)  -->
  <defs>
    <style>
      .st0 {
        fill: #a7a9ac;
      }

      .st0, .st1 {
        fill-rule: evenodd;
      }

      .st1 {
        fill: #1e429a;
      }
    </style>
  </defs>
  <g>
    <path class="st0" d="M46.1,6.24c-3.47.05-7.94,1.8-12.65,4.56h0s-18.25,0-18.25,0l-2.82,17.36.03-.03c-7.78,8.54-11.84,16.64-5.77,17.98C-3.23,42.63,31.06,8.34,46.1,6.24Z"/>
    <path class="st1" d="M11.19,44.67h6.27l1.99-12.23h3.94l-1.99,12.23h3.94l1.99-12.23.64-3.94h3.94l-.64,3.94-1.99,12.23h3.94l1.99-12.23.64-3.94.63-3.94h3.94l-.63,3.94-.64,3.94-1.99,12.23h6.42l5.5-33.88h-4.22c2.32-1.24,4.45-2.11,6.25-2.48-11.64.14-34.32,19.5-40.67,31.25-8.6,15.87,4.59,15.15,19.53,6.31-13.44,6.42-25.9,6.85-17.01-7.34-.91,2.39-1.5,4.43-1.77,6.14Z"/>
  </g>
  <g>
    <path d="M59.59,18.76c0,.69.02,1.19.09,1.73h-2.53c.07-.54.09-1.01.09-1.73v-5.77h-1.35c-.72,0-.92.01-1.73.08v-2.19c.38.05,1.01.08,1.71.08h5.01c.8,0,1.26-.02,1.79-.08v2.19c-.52-.06-.96-.08-1.79-.08h-1.29v5.77Z"/>
    <path d="M69.33,20.48c-.07-.37-.21-.84-.56-1.79-.37-1-.5-1.26-.79-1.51-.24-.22-.53-.31-.89-.31h-1.17v1.88c0,.78.02,1.2.09,1.73h-2.46c.07-.53.09-.87.09-1.72v-6.16c0-.71-.02-1.13-.09-1.68.5.02.93.03,1.71.03h2.98c1.85,0,2.93.96,2.93,2.61,0,.81-.23,1.45-.68,1.88-.29.26-.53.39-1.09.57.58.18.85.45,1.21,1.26.17.37.33.76.85,1.99.13.32.26.61.55,1.21h-2.68ZM67.7,14.92c.68,0,1.09-.41,1.09-1.06s-.37-.97-1.08-.97h-1.8v2.04h1.79Z"/>
    <path d="M81.71,10.96c-.07.49-.09.9-.09,1.73v3.94c0,2.61-1.57,4.09-4.33,4.09-1.42,0-2.58-.4-3.26-1.12-.66-.71-1.01-1.71-1.01-2.99v-3.91c0-.79-.02-1.29-.09-1.73h2.47c-.07.42-.09.88-.09,1.73v3.94c0,1.44.65,2.13,1.99,2.13s2.03-.69,2.03-2.13v-3.94c0-.86-.02-1.21-.09-1.73h2.47Z"/>
    <path d="M90.29,20.56c-.49-.06-.9-.08-1.89-.08h-3.61c-.87,0-1.19.01-1.68.03.07-.46.09-.88.09-1.67v-6.25c0-.71-.02-1.11-.09-1.67.47.02.79.03,1.68.03h3.65c.78,0,1.17-.02,1.71-.08v2.14c-.53-.06-.94-.08-1.71-.08h-2.97v1.68h2.47c.75,0,1.03-.01,1.72-.08v2.12c-.54-.06-.93-.08-1.72-.08h-2.47v1.92h2.95c.87,0,1.37-.02,1.87-.08v2.14Z"/>
    <path d="M97.36,17.38c.05.41.13.62.3.85.27.34.75.54,1.34.54.88,0,1.41-.39,1.41-1.03,0-.35-.18-.66-.48-.8-.24-.11-.53-.19-1.72-.47-1.05-.23-1.42-.37-1.84-.66-.72-.5-1.11-1.27-1.11-2.2,0-1.76,1.42-2.87,3.67-2.87,1.45,0,2.56.45,3.18,1.3.29.38.42.72.57,1.37l-2.43.26c-.14-.74-.55-1.05-1.42-1.05-.7,0-1.21.38-1.21.9,0,.32.17.56.54.73q.23.1,1.58.38c.87.18,1.42.38,1.85.65.82.52,1.24,1.28,1.24,2.33,0,.86-.28,1.59-.8,2.11-.66.64-1.67.97-3.01.97-.97,0-1.93-.21-2.55-.56-.57-.32-1-.81-1.24-1.46-.11-.27-.17-.54-.25-1.06l2.38-.23Z"/>
    <path d="M111.19,20.56c-.49-.06-.9-.08-1.89-.08h-3.61c-.87,0-1.19.01-1.68.03.07-.46.09-.88.09-1.67v-6.25c0-.71-.02-1.11-.09-1.67.47.02.79.03,1.68.03h3.65c.78,0,1.17-.02,1.71-.08v2.14c-.53-.06-.94-.08-1.71-.08h-2.98v1.68h2.47c.75,0,1.03-.01,1.72-.08v2.12c-.54-.06-.93-.08-1.72-.08h-2.47v1.92h2.95c.87,0,1.37-.02,1.87-.08v2.14Z"/>
    <path d="M117.83,15.64c.33.49.55.86.82,1.36-.05-.53-.07-1.05-.07-1.69v-2.61c0-.76-.02-1.21-.09-1.74h2.44c-.07.51-.09,1-.09,1.74v6.08c0,.7.03,1.22.09,1.71h-2.51c-.21-.44-.47-.86-.86-1.45l-2.12-3.19c-.31-.46-.5-.8-.82-1.41.06.52.08,1.14.08,1.71v2.56c0,.79.02,1.29.09,1.79h-2.44c.07-.45.09-.95.09-1.8v-6.02c0-.66-.02-1.18-.09-1.71h2.48c.11.31.37.77.81,1.43l2.17,3.25Z"/>
    <path d="M124.46,17.38c.05.41.13.62.3.85.27.34.75.54,1.34.54.88,0,1.41-.39,1.41-1.03,0-.35-.18-.66-.48-.8-.24-.11-.53-.19-1.72-.47-1.05-.23-1.42-.37-1.84-.66-.72-.5-1.11-1.27-1.11-2.2,0-1.76,1.42-2.87,3.67-2.87,1.45,0,2.56.45,3.18,1.3.29.38.42.72.57,1.37l-2.43.26c-.14-.74-.55-1.05-1.42-1.05-.7,0-1.21.38-1.21.9,0,.32.17.56.54.73q.23.1,1.58.38c.87.18,1.42.38,1.85.65.82.52,1.24,1.28,1.24,2.33,0,.86-.28,1.59-.8,2.11-.66.64-1.67.97-3.01.97-.97,0-1.93-.21-2.55-.56-.57-.32-1-.81-1.24-1.46-.11-.27-.17-.54-.25-1.06l2.38-.23Z"/>
    <path d="M138.28,20.56c-.49-.06-.9-.08-1.89-.08h-3.61c-.87,0-1.19.01-1.68.03.07-.46.09-.88.09-1.67v-6.25c0-.71-.02-1.11-.09-1.67.47.02.79.03,1.68.03h3.65c.78,0,1.17-.02,1.71-.08v2.14c-.53-.06-.94-.08-1.71-.08h-2.98v1.68h2.47c.75,0,1.03-.01,1.72-.08v2.12c-.54-.06-.93-.08-1.72-.08h-2.47v1.92h2.95c.87,0,1.37-.02,1.87-.08v2.14Z"/>
  </g>
  <g>
    <path d="M55.38,42.63c-.51,0-.89.02-1.28.06v-1.48c.37.04.73.06,1.29.06h7.01c.66,0,1.01-.02,1.4-.06v1.48c-.4-.04-.73-.06-1.22-.06h-1.31c.71.3,1.6.5,2.66.59-.37.5-.42.57-.87,1.34-1.48-.26-2.39-.59-3.65-1.3l.74-.63h-2.45l.74.63c-.89.53-1.39.75-2.3,1.01-.52.15-.81.2-1.33.28-.23-.53-.41-.83-.83-1.33,1.05-.11,1.93-.3,2.63-.58h-1.24ZM58.12,35c-.01-.25-.02-.37-.05-.56h1.74c-.03.17-.04.29-.05.56h2.45c.7,0,1.09-.02,1.5-.06v1.45c-.41-.04-.81-.06-1.5-.06h-2.45v.32h1.69c.64,0,.92,0,1.29-.03-.04.31-.04.6-.04,1.25v1.91c0,.64,0,.93.04,1.24-.41-.02-.74-.03-1.29-.03h-5.03c-.52,0-.89.01-1.27.03.02-.37.04-.7.04-1.24v-1.91c0-.57-.01-.89-.04-1.25.39.02.66.03,1.29.03h1.7v-.32h-2.48c-.68,0-1.08.02-1.48.06v-1.45c.39.04.77.06,1.48.06h2.47ZM56.75,37.96h4.39v-.32h-4.39v.32ZM56.75,38.97h4.39v-.32h-4.39v.32ZM56.75,39.98h4.39v-.31h-4.39v.31Z"/>
    <path d="M68.71,36.81c.5,0,.77-.01,1.09-.04v1.39c-.31-.03-.55-.04-1.02-.04.39.32.59.43,1.15.64-.28.29-.42.47-.63.75h2.86c.52,0,.81,0,1.09-.03-.03.32-.04.6-.04,1.16v2.48c0,.61.01.95.06,1.29h-1.65v-.37h-3.99v.37h-1.63c.04-.33.06-.72.06-1.29v-2.48c0-.08,0-.16-.01-.35-.22.14-.35.2-.71.38-.23-.54-.42-.84-.85-1.31.64-.21.91-.35,1.29-.62.3-.21.46-.36.65-.62h-.6c-.37,0-.76.02-1.08.06v-1.42c.25.03.5.05.86.05-.28-.25-.54-.45-.89-.67.5-.45.83-.88,1.05-1.35.11-.23.16-.37.19-.49l1.57.2s-.11.19-.23.48h1.29c.53,0,.83-.01,1.1-.05v1.41c-.28-.03-.58-.04-1.05-.04h-.21c-.01.24-.01.32-.03.51h.31ZM66.94,36.81c.02-.21.02-.25.03-.51h-.43c-.16.21-.23.31-.4.51h.81ZM68.51,39.5c-.35-.28-.56-.5-.77-.78-.21.31-.38.51-.66.78h1.43ZM67.68,41.17h3.94v-.42h-3.94v.42ZM67.68,42.74h3.94v-.44h-3.94v.44ZM70.91,39.13c-.53,0-.68,0-.91.02.03-.23.04-.39.04-.84v-2.58c0-.47-.01-.6-.04-.84.29.03.41.03.99.03h2.22c.56,0,.71-.01.99-.04-.04.29-.04.43-.04.91v2.46c0,.47,0,.64.04.9-.22-.02-.37-.03-.87-.03h-2.41ZM71.58,37.75h1v-1.38h-1v1.38Z"/>
    <path d="M78.94,38.86c.17.02.34.03.53.04-.32-.34-.53-.52-1.01-.85.19-.12.25-.16.4-.29-.13-.01-.19-.01-.3-.01h-.56v1.16q.37-.11.71-.21v1.47l-.71.22v2.75c0,.94-.42,1.25-1.71,1.25-.22,0-.4-.01-.77-.02-.05-.68-.12-.99-.34-1.55.46.04.73.06.98.06.21,0,.26-.06.26-.33v-1.72c-.25.06-.32.08-.42.11-.38.1-.42.11-.59.16l-.25-1.65q.33-.02,1.27-.19v-1.51h-.4c-.25,0-.48.01-.75.04v-1.56c.27.04.45.05.76.05h.39v-.73c0-.55-.01-.74-.05-1.08h1.69c-.04.32-.05.53-.05,1.08v.73h.57c.17,0,.24,0,.43-.03v1.37c.45-.51.58-1.07.58-2.41,0-.2-.01-.41-.03-.55.16.02.48.04.66.04h2.59c.2,0,.38-.01.65-.04-.02.23-.03.38-.03.57v1.71c0,.12.05.15.2.15.09,0,.18-.02.2-.04.06-.05.1-.31.1-.84v-.55c.51.3.81.42,1.29.57-.06,1.17-.11,1.46-.25,1.75-.22.43-.56.54-1.63.54-.58,0-.86-.03-1.05-.12-.31-.13-.4-.34-.4-.9v-1.29h-.76c-.05,1.25-.37,2.04-1.1,2.68h3.21c.26,0,.46,0,.64-.04l.85.92c-.11.14-.13.17-.26.4-.54.91-.88,1.38-1.43,1.95.7.32,1.2.46,2.28.62-.31.49-.53.94-.79,1.67-1.38-.37-2.07-.65-2.88-1.17-.88.56-1.67.89-2.81,1.18-.22-.62-.4-.95-.79-1.53.92-.16,1.52-.35,2.28-.73-.41-.43-.58-.66-1.09-1.38l1.07-.46h-.5c-.38,0-.57.01-.84.04v-1.53ZM80.77,40.34c.27.4.49.65.89.98.37-.32.55-.52.87-.98h-1.76Z"/>
    <path d="M90.31,36.24c-.36.37-.62.58-1.16.93-.39-.5-.62-.71-.98-.99.81-.49,1.53-1.25,1.74-1.83l1.63.2c-.07.13-.1.15-.17.27-.04.08-.05.11-.13.21h2.79c.37,0,.58-.01.76-.03l.85.65q-.07.11-.41.66c-.2.33-.38.55-.73.98-.49-.23-.85-.37-1.38-.54.28-.21.38-.32.54-.5h-1.09c.31.91,1.42,1.4,3.21,1.42-.25.52-.39.86-.53,1.4-.36-.04-.48-.05-.72-.11v2.63c0,.65.01.93.04,1.16-.27-.01-.55-.02-1.06-.02h-.41c.74.31,1.46.45,2.71.51-.37.4-.57.68-.91,1.26-1.6-.28-2.38-.55-3.66-1.29l.88-.48h-2.84l.94.48c-1.24.75-1.9,1-3.55,1.29-.31-.51-.5-.77-.9-1.2,1.24-.12,1.96-.28,2.63-.57h-.38c-.53,0-.79.01-1.07.02.02-.24.04-.56.04-1.04v-2.22c0-.41-.01-.75-.03-.94q-.46.2-.63.29l-.55-1.47c.66-.13,1.71-.52,2.51-.93l.41,1.17c1.34-.24,2.04-.66,2.25-1.35h-.65ZM87.64,36.58c-.67-.51-1.02-.72-1.69-1.04l.96-1.1c.69.31,1.06.51,1.74.94l-1.01,1.2ZM88.75,38.44c-.12-.21-.2-.35-.37-.57-.45.22-.66.33-1.18.56.39.01.42.01.79.01h.75ZM88.55,39.6h4.4v-.28h-4.4v.28ZM88.55,40.66h4.4v-.29h-4.4v.29ZM88.55,41.72h4.4v-.29h-4.4v.29ZM93.02,38.44c-.53-.29-.84-.54-1.22-1.06-.32.49-.69.77-1.37,1.06h2.59Z"/>
    <path d="M99.99,42.96c0,.59.02,1.06.06,1.44h-1.74c.04-.36.06-.81.06-1.46v-2.94c-.36.35-.6.56-1.17,1-.33-.69-.56-1.05-.96-1.5,1.27-.82,2.13-1.64,2.81-2.69h-1.15c-.57,0-.98.02-1.36.06v-1.6c.38.04.79.06,1.36.06h1.87c.14-.37.21-.65.25-.96l1.81.18c-.04.11-.15.37-.31.79h3.36c.59,0,1-.02,1.36-.06v1.6c-.39-.04-.8-.06-1.36-.06h-4.04c-.11.19-.19.33-.34.57h3.44c.53,0,.81-.01,1.1-.03-.04.32-.05.64-.05,1.18v4.59c0,.52-.17.87-.53,1.06-.28.14-.69.2-1.4.2-.28,0-.49-.01-.96-.03-.05-.62-.14-.96-.38-1.55.53.06,1,.11,1.26.11.33,0,.4-.05.4-.3v-.37h-3.42v.72ZM103.4,39.24v-.47h-3.42v.47h3.42ZM103.4,40.98v-.48h-3.42v.48h3.42Z"/>
    <path d="M111.27,35.92s-.01.02-.03.08c0,.01-.01.03-.02.07-.16.53-.52,1.45-.88,2.2.64,1.02.81,1.52.81,2.34,0,.59-.28,1.08-.73,1.3-.29.13-.68.2-1.19.21-.03-.76-.08-1.04-.28-1.53.13.02.19.03.29.03.32,0,.4-.07.4-.35,0-.47-.13-.96-.36-1.38-.08-.16-.13-.22-.35-.52v4.57c0,.52.02.98.05,1.44h-1.67c.04-.35.06-.87.06-1.44v-7.09c0-.25-.01-.65-.04-1.17.23.03.4.04.84.04h1.65c.49,0,.66-.01.81-.05l.65.89q-.01-.42-.04-.85c.26.03.47.04,1,.04h3.34c.51,0,.64-.01.96-.04-.03.21-.04.55-.04,1.19v2.68c0,.55.01.76.04,1.19q-.25-.01-.5-.02l1.07.87c-.05.04-.08.06-.54.48-.21.19-.55.47-.85.68.46.5.85.8,1.47,1.12-.35.47-.55.85-.81,1.56-.52-.31-.73-.47-1.08-.79-.37-.33-.64-.63-.88-.96v.79c-.82.22-2.06.52-2.81.67-.71.14-.98.2-1.16.27l-.25-1.68c.21,0,.45-.03,1.08-.12v-6.73ZM108.93,38.24c.35-.72.49-1.1.74-2.05h-.74v2.05ZM112.83,36.66h2.1v-.48h-2.1v.48ZM112.83,38.45h2.1v-.52h-2.1v.52ZM112.83,42.37c.44-.08.81-.17,1.19-.28-.38-.7-.59-1.35-.75-2.32h-.44v2.6ZM114.73,39.77c.06.37.11.52.21.79.3-.23.69-.6.84-.79h-1.05Z"/>
    <path d="M122.24,35.24c-.07.11-.17.28-.29.53-.37.81-1.04,1.81-1.73,2.63-.53.63-.96,1.05-1.68,1.62-.37-.68-.64-1.06-1.06-1.55,1.07-.73,1.86-1.56,2.47-2.62.31-.53.47-.9.54-1.27l1.74.66ZM125.7,44.49c-.26-.56-.34-.72-.54-1.13-1.87.31-3.44.47-6.27.63-.2.01-.39.03-.59.06l-.25-1.81c.22.02.41.03.77.03h.57c.6-1.04,1.08-1.98,1.5-2.94.44-.96.53-1.26.65-1.81l1.9.47c-.07.13-.08.15-.16.34-.57,1.36-1.39,2.99-1.94,3.87,1.5-.07,2.27-.14,3.04-.25-.35-.59-.76-1.17-1.12-1.61l1.43-.79c1.06,1.4,1.9,2.7,2.6,4.05l-1.58.9ZM124.61,34.58c.14.54.63,1.42,1.15,2.07.57.71,1.18,1.23,2.03,1.75-.46.57-.69.93-1.04,1.62-1.03-.8-1.7-1.49-2.38-2.43-.53-.74-.76-1.15-1.22-2.17q-.05-.12-.09-.19l1.56-.65Z"/>
    <path d="M137.45,42.83c0,1.25-.38,1.52-2.24,1.52-.26,0-.55-.01-.96-.03-.13-.69-.22-1.01-.49-1.65.64.07,1.13.11,1.62.11.32,0,.45-.08.45-.32v-6.17h-5.99c-.76,0-1.07.01-1.45.05v-1.61c.35.05.68.06,1.45.06h6.47c.5,0,.83-.01,1.2-.05-.04.41-.05.67-.05,1.17v6.94ZM128.76,36.75c.28.03.46.04.92.04h4.59c.48,0,.67,0,.93-.04v1.55c-.26-.04-.48-.05-.92-.05h-4.6c-.46,0-.66.01-.92.05v-1.55ZM134.77,41.49c0,.51.01.75.03,1.03-.32-.02-.55-.03-1.08-.03h-2.86v.84h-1.64c.04-.33.05-.66.05-1.2v-2.41c0-.39-.01-.71-.05-1.01.29.02.56.03,1.03.03h3.45c.56,0,.84-.01,1.11-.03-.02.28-.03.52-.03,1.03v1.75ZM130.86,41.03h2.33v-.86h-2.33v.86Z"/>
  </g>
  <g>
    <path d="M54.43,30.28v-5.63h.46v5.63h-.46Z"/>
    <path d="M56.53,30.28v-5.63h.48l2.3,3.87.63,1.13h.04c-.02-.28-.04-.56-.05-.84-.01-.28-.02-.56-.02-.83v-3.33h.44v5.63h-.48l-2.3-3.87-.62-1.13h-.03c.01.27.02.54.03.81s.02.54.02.82v3.37h-.44Z"/>
    <path d="M63.05,30.28l-1.84-5.63h.49l1.02,3.23c.1.34.2.65.28.94.08.29.18.6.3.94h.03c.11-.34.21-.65.3-.94.09-.29.19-.6.29-.94l1-3.23h.47l-1.83,5.63h-.51Z"/>
    <path d="M66.24,30.28v-5.63h3.11v.4h-2.65v2.04h2.22v.4h-2.22v2.38h2.73v.4h-3.2Z"/>
    <path d="M72.15,30.38c-.41,0-.77-.08-1.1-.24-.32-.16-.6-.36-.82-.6l.29-.32c.21.23.45.41.73.54.28.14.58.2.9.2.42,0,.75-.1.99-.3.24-.2.36-.46.36-.78,0-.23-.04-.41-.13-.54-.09-.14-.21-.25-.36-.34-.15-.09-.32-.17-.5-.25l-.84-.38c-.16-.07-.34-.16-.51-.28-.18-.11-.33-.26-.45-.44-.12-.18-.18-.41-.18-.68s.07-.53.22-.74c.14-.21.34-.37.59-.49.25-.12.54-.18.86-.18.34,0,.64.07.91.2.27.13.49.29.67.48l-.25.3c-.17-.17-.36-.31-.58-.41-.22-.1-.47-.15-.75-.15-.36,0-.65.09-.87.26s-.33.4-.33.7c0,.21.05.38.15.52s.23.24.38.32c.15.08.29.15.43.22l.83.37c.22.09.41.2.59.32.18.12.32.28.43.46.11.19.16.42.16.71s-.07.55-.22.78-.36.42-.63.55c-.27.13-.59.2-.96.2Z"/>
    <path d="M76.15,30.28v-5.23h-1.77v-.4h4.01v.4h-1.77v5.23h-.47Z"/>
    <path d="M79.46,30.28v-5.63h.62l1.15,3.23c.07.2.14.41.22.61.07.21.15.42.22.62h.03c.07-.21.14-.41.21-.62.07-.21.14-.41.2-.61l1.16-3.23h.62v5.63h-.44v-3.57c0-.16,0-.33,0-.51,0-.18.01-.36.02-.54.01-.18.02-.35.02-.51h-.03l-.44,1.26-1.18,3.26h-.37l-1.19-3.26-.45-1.26h-.03c.02.15.03.32.04.51s.01.36.02.54c0,.18,0,.35,0,.51v3.57h-.42Z"/>
    <path d="M85.54,30.28v-5.63h3.11v.4h-2.65v2.04h2.22v.4h-2.22v2.38h2.73v.4h-3.2Z"/>
    <path d="M89.96,30.28v-5.63h.48l2.3,3.87.63,1.13h.04c-.02-.28-.04-.56-.05-.84-.01-.28-.02-.56-.02-.83v-3.33h.44v5.63h-.48l-2.3-3.87-.62-1.13h-.03c0,.27.02.54.03.81.01.27.02.54.02.82v3.37h-.44Z"/>
    <path d="M96.61,30.28v-5.23h-1.77v-.4h4.01v.4h-1.77v5.23h-.47Z"/>
    <path d="M101.01,30.38c-.41,0-.77-.08-1.1-.24-.32-.16-.6-.36-.82-.6l.29-.32c.21.23.45.41.73.54s.58.2.9.2c.42,0,.75-.1.99-.3.24-.2.36-.46.36-.78,0-.23-.04-.41-.13-.54s-.21-.25-.36-.34c-.15-.09-.32-.17-.5-.25l-.84-.38c-.17-.07-.34-.16-.51-.28-.18-.11-.33-.26-.45-.44s-.18-.41-.18-.68.07-.53.22-.74c.14-.21.34-.37.59-.49.25-.12.54-.18.86-.18.34,0,.64.07.91.2.27.13.49.29.67.48l-.25.3c-.17-.17-.36-.31-.58-.41-.22-.1-.47-.15-.75-.15-.36,0-.65.09-.87.26s-.33.4-.33.7c0,.21.05.38.15.52.1.13.23.24.38.32.15.08.29.15.43.22l.83.37c.22.09.41.2.59.32.18.12.32.28.43.46.11.19.16.42.16.71s-.07.55-.22.78-.36.42-.63.55c-.27.13-.59.2-.96.2Z"/>
  </g>
</svg>